o pCone1
v -1.7229573401206095 1.069276735360801 1.9435253804029822
v 2.199183618398804 1.069276735360801 1.9435247863958356
v 2.199183706643768 1.069276735360801 5.865666427167358
v -1.7229573401206095 1.069276735360801 1.9435253804029822
v 2.199183706643768 1.069276735360801 5.865666427167358
v -1.7229579341277554 1.069276735360801 5.865666338922395
v -1.7229573401206095 1.069276735360801 1.9435253804029822
v -1.7229579341277554 1.069276735360801 5.865666338922395
v 0.23811284213552406 3.215507721702635 3.9045955626591153
v -1.7229579341277554 1.069276735360801 5.865666338922395
v 2.199183706643768 1.069276735360801 5.865666427167358
v 0.23811284213552406 3.215507721702635 3.9045955626591153
v 2.199183706643768 1.069276735360801 5.865666427167358
v 2.199183618398804 1.069276735360801 1.9435247863958356
v 0.23811284213552406 3.215507721702635 3.9045955626591153
v 2.199183618398804 1.069276735360801 1.9435247863958356
v -1.7229573401206095 1.069276735360801 1.9435253804029822
v 0.23811284213552406 3.215507721702635 3.9045955626591153
vt 0.5 0
vt 0.75 0.25
vt 0.5 0.5
vt 0.5 0
vt 0.5 0.5
vt 0.25 0.25
vt 0.25 0.5
vt 0.375 0.5
vt 0.5 1
vt 0.375 0.5
vt 0.5 0.5
vt 0.5 1
vt 0.5 0.5
vt 0.625 0.5
vt 0.5 1
vt 0.625 0.5
vt 0.75 0.5
vt 0.5 1
vn 0 -1 0
vn 0 -1 0
vn 0 -1 0
vn 0 -1 0
vn 0 -1 0
vn 0 -1 0
vn -0.7382337049765003 0.6745450295100167 5.551115447754271e-17
vn -0.7382337049765003 0.6745450295100167 5.551115447754271e-17
vn -0.7382337049765003 0.6745450295100167 5.551115447754271e-17
vn 5.551115447754271e-17 0.6745450295100167 0.7382337049765003
vn 5.551115447754271e-17 0.6745450295100167 0.7382337049765003
vn 5.551115447754271e-17 0.6745450295100167 0.7382337049765003
vn 0.7382337049765003 0.6745450295100167 -5.551115447754271e-17
vn 0.7382337049765003 0.6745450295100167 -5.551115447754271e-17
vn 0.7382337049765003 0.6745450295100167 -5.551115447754271e-17
vn -5.551115447754271e-17 0.6745450295100167 -0.7382337049765003
vn -5.551115447754271e-17 0.6745450295100167 -0.7382337049765003
vn -5.551115447754271e-17 0.6745450295100167 -0.7382337049765003
f 1/1/1 2/2/2 3/3/3
f 4/4/4 5/5/5 6/6/6
f 7/7/7 8/8/8 9/9/9
f 10/10/10 11/11/11 12/12/12
f 13/13/13 14/14/14 15/15/15
f 16/16/16 17/17/17 18/18/18
o pCone1
v -1.72295734012061 1.069276735360801 -1.945561916123029
v 2.199183618398803 1.069276735360801 -1.9455625101301757
v 2.199183706643767 1.069276735360801 1.9765791306413476
v -1.72295734012061 1.069276735360801 -1.945561916123029
v 2.199183706643767 1.069276735360801 1.9765791306413476
v -1.7229579341277559 1.069276735360801 1.9765790423963838
v -1.72295734012061 1.069276735360801 -1.945561916123029
v -1.7229579341277559 1.069276735360801 1.9765790423963838
v 0.2381128421355236 3.215507721702635 0.015508266133104054
v -1.7229579341277559 1.069276735360801 1.9765790423963838
v 2.199183706643767 1.069276735360801 1.9765791306413476
v 0.2381128421355236 3.215507721702635 0.015508266133104054
v 2.199183706643767 1.069276735360801 1.9765791306413476
v 2.199183618398803 1.069276735360801 -1.9455625101301757
v 0.2381128421355236 3.215507721702635 0.015508266133104054
v 2.199183618398803 1.069276735360801 -1.9455625101301757
v -1.72295734012061 1.069276735360801 -1.945561916123029
v 0.2381128421355236 3.215507721702635 0.015508266133104054
vt 0.5 0
vt 0.75 0.25
vt 0.5 0.5
vt 0.5 0
vt 0.5 0.5
vt 0.25 0.25
vt 0.25 0.5
vt 0.375 0.5
vt 0.5 1
vt 0.375 0.5
vt 0.5 0.5
vt 0.5 1
vt 0.5 0.5
vt 0.625 0.5
vt 0.5 1
vt 0.625 0.5
vt 0.75 0.5
vt 0.5 1
vn 0 -1 0
vn 0 -1 0
vn 0 -1 0
vn 0 -1 0
vn 0 -1 0
vn 0 -1 0
vn -0.7382337049765003 0.6745450295100167 5.551115447754271e-17
vn -0.7382337049765003 0.6745450295100167 5.551115447754271e-17
vn -0.7382337049765003 0.6745450295100167 5.551115447754271e-17
vn 5.551115447754271e-17 0.6745450295100167 0.7382337049765003
vn 5.551115447754271e-17 0.6745450295100167 0.7382337049765003
vn 5.551115447754271e-17 0.6745450295100167 0.7382337049765003
vn 0.7382337049765003 0.6745450295100167 -5.551115447754271e-17
vn 0.7382337049765003 0.6745450295100167 -5.551115447754271e-17
vn 0.7382337049765003 0.6745450295100167 -5.551115447754271e-17
vn -5.551115447754271e-17 0.6745450295100167 -0.7382337049765003
vn -5.551115447754271e-17 0.6745450295100167 -0.7382337049765003
vn -5.551115447754271e-17 0.6745450295100167 -0.7382337049765003
f 19/19/19 20/20/20 21/21/21
f 22/22/22 23/23/23 24/24/24
f 25/25/25 26/26/26 27/27/27
f 28/28/28 29/29/29 30/30/30
f 31/31/31 32/32/32 33/33/33
f 34/34/34 35/35/35 36/36/36
o pCone1
v -5.612044636646621 1.069276735360801 1.9435253804029826
v -1.6899036781272077 1.069276735360801 1.943524786395836
v -1.6899035898822434 1.069276735360801 5.865666427167359
v -5.612044636646621 1.069276735360801 1.9435253804029826
v -1.6899035898822434 1.069276735360801 5.865666427167359
v -5.6120452306537665 1.069276735360801 5.865666338922395
v -5.612044636646621 1.069276735360801 1.9435253804029826
v -5.6120452306537665 1.069276735360801 5.865666338922395
v -3.650974454390487 3.215507721702635 3.904595562659116
v -5.6120452306537665 1.069276735360801 5.865666338922395
v -1.6899035898822434 1.069276735360801 5.865666427167359
v -3.650974454390487 3.215507721702635 3.904595562659116
v -1.6899035898822434 1.069276735360801 5.865666427167359
v -1.6899036781272077 1.069276735360801 1.943524786395836
v -3.650974454390487 3.215507721702635 3.904595562659116
v -1.6899036781272077 1.069276735360801 1.943524786395836
v -5.612044636646621 1.069276735360801 1.9435253804029826
v -3.650974454390487 3.215507721702635 3.904595562659116
vt 0.5 0
vt 0.75 0.25
vt 0.5 0.5
vt 0.5 0
vt 0.5 0.5
vt 0.25 0.25
vt 0.25 0.5
vt 0.375 0.5
vt 0.5 1
vt 0.375 0.5
vt 0.5 0.5
vt 0.5 1
vt 0.5 0.5
vt 0.625 0.5
vt 0.5 1
vt 0.625 0.5
vt 0.75 0.5
vt 0.5 1
vn 0 -1 0
vn 0 -1 0
vn 0 -1 0
vn 0 -1 0
vn 0 -1 0
vn 0 -1 0
vn -0.7382337049765003 0.6745450295100167 5.551115447754271e-17
vn -0.7382337049765003 0.6745450295100167 5.551115447754271e-17
vn -0.7382337049765003 0.6745450295100167 5.551115447754271e-17
vn 5.551115447754271e-17 0.6745450295100167 0.7382337049765003
vn 5.551115447754271e-17 0.6745450295100167 0.7382337049765003
vn 5.551115447754271e-17 0.6745450295100167 0.7382337049765003
vn 0.7382337049765003 0.6745450295100167 -5.551115447754271e-17
vn 0.7382337049765003 0.6745450295100167 -5.551115447754271e-17
vn 0.7382337049765003 0.6745450295100167 -5.551115447754271e-17
vn -5.551115447754271e-17 0.6745450295100167 -0.7382337049765003
vn -5.551115447754271e-17 0.6745450295100167 -0.7382337049765003
vn -5.551115447754271e-17 0.6745450295100167 -0.7382337049765003
f 37/37/37 38/38/38 39/39/39
f 40/40/40 41/41/41 42/42/42
f 43/43/43 44/44/44 45/45/45
f 46/46/46 47/47/47 48/48/48
f 49/49/49 50/50/50 51/51/51
f 52/52/52 53/53/53 54/54/54
o pCone1
v -5.612044636646621 1.069276735360801 -1.9455619161230286
v -1.689903678127208 1.069276735360801 -1.9455625101301752
v -1.6899035898822439 1.069276735360801 1.976579130641348
v -5.612044636646621 1.069276735360801 -1.9455619161230286
v -1.6899035898822439 1.069276735360801 1.976579130641348
v -5.612045230653767 1.069276735360801 1.9765790423963843
v -5.612044636646621 1.069276735360801 -1.9455619161230286
v -5.612045230653767 1.069276735360801 1.9765790423963843
v -3.6509744543904876 3.215507721702635 0.015508266133104498
v -5.612045230653767 1.069276735360801 1.9765790423963843
v -1.6899035898822439 1.069276735360801 1.976579130641348
v -3.6509744543904876 3.215507721702635 0.015508266133104498
v -1.6899035898822439 1.069276735360801 1.976579130641348
v -1.689903678127208 1.069276735360801 -1.9455625101301752
v -3.6509744543904876 3.215507721702635 0.015508266133104498
v -1.689903678127208 1.069276735360801 -1.9455625101301752
v -5.612044636646621 1.069276735360801 -1.9455619161230286
v -3.6509744543904876 3.215507721702635 0.015508266133104498
vt 0.5 0
vt 0.75 0.25
vt 0.5 0.5
vt 0.5 0
vt 0.5 0.5
vt 0.25 0.25
vt 0.25 0.5
vt 0.375 0.5
vt 0.5 1
vt 0.375 0.5
vt 0.5 0.5
vt 0.5 1
vt 0.5 0.5
vt 0.625 0.5
vt 0.5 1
vt 0.625 0.5
vt 0.75 0.5
vt 0.5 1
vn 0 -1 0
vn 0 -1 0
vn 0 -1 0
vn 0 -1 0
vn 0 -1 0
vn 0 -1 0
vn -0.7382337049765003 0.6745450295100167 5.551115447754271e-17
vn -0.7382337049765003 0.6745450295100167 5.551115447754271e-17
vn -0.7382337049765003 0.6745450295100167 5.551115447754271e-17
vn 5.551115447754271e-17 0.6745450295100167 0.7382337049765003
vn 5.551115447754271e-17 0.6745450295100167 0.7382337049765003
vn 5.551115447754271e-17 0.6745450295100167 0.7382337049765003
vn 0.7382337049765003 0.6745450295100167 -5.551115447754271e-17
vn 0.7382337049765003 0.6745450295100167 -5.551115447754271e-17
vn 0.7382337049765003 0.6745450295100167 -5.551115447754271e-17
vn -5.551115447754271e-17 0.6745450295100167 -0.7382337049765003
vn -5.551115447754271e-17 0.6745450295100167 -0.7382337049765003
vn -5.551115447754271e-17 0.6745450295100167 -0.7382337049765003
f 55/55/55 56/56/56 57/57/57
f 58/58/58 59/59/59 60/60/60
f 61/61/61 62/62/62 63/63/63
f 64/64/64 65/65/65 66/66/66
f 67/67/67 68/68/68 69/69/69
f 70/70/70 71/71/71 72/72/72
